<?xml version="1.0" encoding="UTF-8"?> <svg xmlns="http://www.w3.org/2000/svg" viewBox="0 0 70 70"><defs><style>.cls-1{fill:#cc092f;}</style></defs><g id="Layer_2" data-name="Layer 2"><g id="Layer_1-2" data-name="Layer 1"><path class="cls-1" d="M70,37.92c0-4.16-1.9-7.59-4.45-8.53a30.57,30.57,0,0,0-61.1,0C1.9,30.33,0,33.76,0,37.92c0,4.88,2.55,8.75,5.83,8.75H9a4.35,4.35,0,0,0,8.46-1.46V30.63a4.39,4.39,0,0,0-4.37-4.38A4.34,4.34,0,0,0,9,29.17H7.36A27.54,27.54,0,0,1,14.44,12.1l3.5,3.5a1.46,1.46,0,0,0,2,.08c8.31-7.29,21.87-7.29,30.18,0A1.56,1.56,0,0,0,51,16a1.4,1.4,0,0,0,1-.44l3.5-3.5a27.94,27.94,0,0,1,7.08,17.07H61a4.35,4.35,0,0,0-8.46,1.46V45.21a4.39,4.39,0,0,0,4.38,4.37A4.35,4.35,0,0,0,61,46.67h1.75V51A13.17,13.17,0,0,1,49.58,64.17H44.92a4.35,4.35,0,0,0-4.09-2.92H32.08a4.38,4.38,0,0,0,0,8.75h8.75a4.35,4.35,0,0,0,4.09-2.92h4.66a16.09,16.09,0,0,0,16-16V46.37C68.18,45.43,70,42.07,70,37.92ZM40.83,67.08H32.08a1.46,1.46,0,0,1,0-2.91h8.75a1.46,1.46,0,1,1,0,2.91ZM13.13,29.17a1.45,1.45,0,0,1,1.45,1.46V45.21a1.46,1.46,0,1,1-2.91,0V30.63A1.46,1.46,0,0,1,13.13,29.17ZM8.75,43.75H5.83c-1.38,0-2.91-2.48-2.91-5.83s1.53-5.84,2.91-5.84H8.75ZM51,12.61a26.6,26.6,0,0,0-31.87,0l-2.55-2.55A27.19,27.19,0,0,1,35,2.92a27.5,27.5,0,0,1,18.52,7.14Zm5.91,34.06a1.46,1.46,0,0,1-1.46-1.46V30.63a1.46,1.46,0,1,1,2.91,0V45.21A1.46,1.46,0,0,1,56.88,46.67Zm7.29-2.92H61.25V32.08h2.92c1.38,0,2.91,2.48,2.91,5.84S65.55,43.75,64.17,43.75Z"></path></g></g></svg> 