<?xml version="1.0" encoding="UTF-8"?> <svg xmlns="http://www.w3.org/2000/svg" viewBox="0 0 50.92 65"><defs><style>.cls-1{fill:#cc1331;}</style></defs><g id="Layer_2" data-name="Layer 2"><g id="Layer_1-2" data-name="Layer 1"><path class="cls-1" d="M40.14,20.24h6.69a1.72,1.72,0,0,1,1.77,1.67L50.88,51.3C51.41,58.82,45.25,65,37.33,65H13.56C5.11,65,0,59,0,51.3L2.11,21.91a1.89,1.89,0,0,1,1.94-1.67Zm7.22,31.23L45.25,23.58H5.63L3.52,51.47c-.35,5.68,4.05,10.19,10,10.19H37.33C43.14,61.66,47.89,57,47.36,51.47Z"></path><path class="cls-1" d="M43.55,22.51l-3.44-.72L42.8,10.25a2.17,2.17,0,0,0-.32-1.73,2.4,2.4,0,0,0-1.52-1L21.39,3.4A2.42,2.42,0,0,0,18.5,5.14L14.55,22.05l-3.44-.73,4-16.9A5.59,5.59,0,0,1,17.67.89,6.15,6.15,0,0,1,22.15.14L41.72,4.25a5.88,5.88,0,0,1,3.73,2.47A5.39,5.39,0,0,1,46.24,11Z"></path><path class="cls-1" d="M26.92,46.81h-2.7a7.66,7.66,0,0,1-7.85-7.45V31.44h2.82v7.92a4.91,4.91,0,0,0,5,4.78h2.7a4.91,4.91,0,0,0,5-4.78V31.44h2.82v7.92A7.66,7.66,0,0,1,26.92,46.81Z"></path><ellipse class="cls-1" cx="33.38" cy="30.85" rx="2.67" ry="2.54"></ellipse><ellipse class="cls-1" cx="17.8" cy="30.85" rx="2.67" ry="2.54"></ellipse></g></g></svg> 