<?xml version="1.0" encoding="UTF-8"?> <svg xmlns="http://www.w3.org/2000/svg" viewBox="0 0 64.04 64.03"><defs><style>.cls-1{fill:#cc092f;stroke:#cc092f;stroke-miterlimit:10;stroke-width:2.3px;}</style></defs><g id="Layer_2" data-name="Layer 2"><g id="Layer_1-2" data-name="Layer 1"><path class="cls-1" d="M61.19,53,50.35,42.14a1.65,1.65,0,0,0-1.15-.47h0a1.61,1.61,0,0,0-1.14.47l-2.25,2.25L41,39.58A23,23,0,0,0,24,1.15h0A22.92,22.92,0,0,0,24.1,47h0a22.65,22.65,0,0,0,15.44-6l4.81,4.82-2.25,2.25a1.62,1.62,0,0,0,0,2.29L53,61.18a5.77,5.77,0,0,0,4.11,1.7h0A5.79,5.79,0,0,0,61.18,53ZM38.89,38.89A20.7,20.7,0,0,1,24.14,45h0A21,21,0,0,1,9.24,9.24,20.73,20.73,0,0,1,24,3.14h0A21,21,0,0,1,38.89,38.89Zm20.9,20.89a3.72,3.72,0,0,1-2.69,1.11h0a3.78,3.78,0,0,1-2.7-1.12L43.82,49.19l5.38-5.37L59.78,54.39a3.81,3.81,0,0,1,0,5.39h0Z"></path></g></g></svg> 