<?xml version="1.0" encoding="UTF-8"?> <!-- Generator: Adobe Illustrator 24.2.1, SVG Export Plug-In . SVG Version: 6.00 Build 0) --> <svg xmlns="http://www.w3.org/2000/svg" xmlns:xlink="http://www.w3.org/1999/xlink" version="1.1" id="Capa_1" x="0px" y="0px" viewBox="0 0 44 44" style="enable-background:new 0 0 44 44;" xml:space="preserve"> <g> <g> <path d="M42.7,41.4h-9.8v-3h7.6c0.7,0,1.3-0.6,1.3-1.3V24.8c0-0.7-0.6-1.3-1.3-1.3H22.7c-0.7,0-1.3,0.6-1.3,1.3v12.4 c0,0.7,0.6,1.3,1.3,1.3h7.6v3h-9.7c-0.7,0-1.3,0.6-1.3,1.3s0.6,1.3,1.3,1.3h22.1c0.7,0,1.3-0.6,1.3-1.3S43.4,41.4,42.7,41.4z"></path> <path d="M17.2,33.1c-4.6,0-8.3-3.7-8.3-8.3c0-0.7-0.6-1.3-1.3-1.3S6.3,24,6.3,24.8c0,6,4.9,10.9,10.9,10.9c0.7,0,1.3-0.6,1.3-1.3 S17.9,33.1,17.2,33.1z"></path> <path d="M26.8,10.9c4.6,0,8.3,3.7,8.3,8.3c0,0.7,0.6,1.3,1.3,1.3s1.3-0.6,1.3-1.3c0-6-4.9-10.9-10.9-10.9c-0.7,0-1.3,0.6-1.3,1.3 S26.1,10.9,26.8,10.9z"></path> <path d="M23.4,20.5c0.7,0,1.3-0.6,1.3-1.3S24.1,18,23.4,18h-9.7v-3h7.6c0.7,0,1.3-0.6,1.3-1.3V1.3C22.6,0.6,22,0,21.3,0H3.4 C2.7,0,2.1,0.6,2.1,1.3v12.4c0,0.7,0.6,1.3,1.3,1.3h7.6v3H1.3C0.6,18,0,18.5,0,19.3s0.6,1.3,1.3,1.3H23.4z"></path> </g> </g> </svg> 