<?xml version="1.0" encoding="UTF-8"?> <!-- Generator: Adobe Illustrator 24.2.3, SVG Export Plug-In . SVG Version: 6.00 Build 0) --> <svg xmlns:v="https://vecta.io/nano" xmlns="http://www.w3.org/2000/svg" xmlns:xlink="http://www.w3.org/1999/xlink" version="1.1" id="Layer_1" x="0px" y="0px" viewBox="0 0 44.8 44.8" style="enable-background:new 0 0 44.8 44.8;" xml:space="preserve"> <style type="text/css"> .st0{fill-rule:evenodd;clip-rule:evenodd;} .st1{fill:#CC092F;} .st2{fill-rule:evenodd;clip-rule:evenodd;fill:#CC092F;} </style> <g> <path d="M23.2,34.4v10.3c3.4-0.5,6.4-4.1,8.3-9.4C28.8,34.8,26,34.5,23.2,34.4z"></path> <path d="M28,44.1c0.1,0,0.1,0,0.2,0c0.2,0,0.3-0.1,0.5-0.2c0.2-0.1,0.4-0.1,0.6-0.2c0.2-0.1,0.3-0.1,0.5-0.2 c0.2-0.1,0.4-0.1,0.6-0.2c0.2-0.1,0.3-0.1,0.5-0.2c0.2-0.1,0.4-0.2,0.6-0.2c0.2-0.1,0.3-0.1,0.5-0.2c0.2-0.1,0.4-0.2,0.6-0.3 c0.2-0.1,0.3-0.2,0.5-0.3c0.2-0.1,0.4-0.2,0.5-0.3c0.2-0.1,0.3-0.2,0.5-0.3c0.2-0.1,0.3-0.2,0.5-0.3c0.2-0.1,0.3-0.2,0.5-0.3 c0.2-0.1,0.3-0.2,0.5-0.4c0.1-0.1,0.3-0.2,0.4-0.3c0.2-0.1,0.3-0.3,0.5-0.4c0.1-0.1,0.3-0.2,0.4-0.3c0.2-0.1,0.3-0.3,0.5-0.4 c0.1-0.1,0.3-0.2,0.4-0.4c0.2-0.1,0.3-0.3,0.5-0.4c0.1-0.1,0.3-0.3,0.4-0.4c0,0,0-0.1,0.1-0.1c-1.7-0.9-3.6-1.6-5.5-2.1 C32.1,39,30.4,41.8,28,44.1z"></path> <path d="M33.6,34.3c2.1,0.6,4.2,1.4,6.1,2.4c2.1-2.5,3.5-5.3,4.4-8.4h-9.2C34.6,30.3,34.2,32.3,33.6,34.3z"></path> <path d="M32.1,10.9c-2.9,0.7-5.9,1-8.8,1.1v4.5h10C33,14.6,32.6,12.7,32.1,10.9z"></path> <path d="M23.2,0v10.3c2.8,0,5.6-0.4,8.3-1C29.7,4.1,26.7,0.5,23.2,0z"></path> <path d="M33.2,28.3h-10v4.5c3,0,5.9,0.4,8.8,1.1C32.6,32,33,30.2,33.2,28.3z"></path> <path d="M34.9,16.5h9.2c-0.8-3.1-2.3-5.9-4.4-8.4c-1.9,1-4,1.9-6.1,2.4C34.2,12.5,34.6,14.5,34.9,16.5z"></path> <path d="M38.6,6.9C38.6,6.8,38.6,6.8,38.6,6.9c-0.2-0.2-0.3-0.3-0.5-0.5C38,6.2,37.9,6.1,37.7,6c-0.1-0.1-0.3-0.2-0.4-0.4 c-0.2-0.1-0.3-0.3-0.5-0.4c-0.1-0.1-0.3-0.2-0.4-0.3c-0.2-0.1-0.3-0.3-0.5-0.4c-0.1-0.1-0.3-0.2-0.4-0.3C35.3,4,35.1,3.9,35,3.8 c-0.1-0.1-0.3-0.2-0.5-0.3c-0.2-0.1-0.3-0.2-0.5-0.3c-0.2-0.1-0.3-0.2-0.5-0.3c-0.2-0.1-0.4-0.2-0.5-0.3c-0.2-0.1-0.3-0.2-0.5-0.2 c-0.2-0.1-0.4-0.2-0.6-0.3c-0.2-0.1-0.3-0.2-0.5-0.2c-0.2-0.1-0.4-0.2-0.6-0.2c-0.2-0.1-0.3-0.1-0.5-0.2c-0.2-0.1-0.4-0.1-0.6-0.2 c-0.2-0.1-0.3-0.1-0.5-0.2c-0.2-0.1-0.4-0.1-0.6-0.2c-0.2,0-0.3-0.1-0.5-0.1c-0.1,0-0.1,0-0.2,0C30.4,3,32.1,5.8,33.1,9 C35,8.5,36.9,7.8,38.6,6.9z"></path> <path d="M11.2,10.5C9.1,9.9,7.1,9.1,5.1,8.1c-2.1,2.5-3.5,5.3-4.4,8.4H10C10.3,14.5,10.7,12.5,11.2,10.5z"></path> <path d="M21.6,44.8V34.4c-2.8,0-5.6,0.4-8.3,1C15.2,40.7,18.2,44.3,21.6,44.8z"></path> <path d="M12.8,33.9c2.9-0.7,5.9-1,8.8-1.1v-4.5h-10C11.9,30.2,12.3,32,12.8,33.9z"></path> <path d="M21.6,10.3V0c-3.4,0.5-6.4,4.1-8.3,9.4C16,10,18.8,10.3,21.6,10.3z"></path> <path d="M11.6,16.5h10v-4.5c-3,0-5.9-0.4-8.8-1.1C12.3,12.7,11.9,14.6,11.6,16.5z"></path> <path d="M16.8,0.6c-0.1,0-0.1,0-0.2,0c-0.2,0-0.3,0.1-0.5,0.1C15.9,0.9,15.7,1,15.5,1c-0.2,0.1-0.3,0.1-0.5,0.2 c-0.2,0.1-0.4,0.1-0.6,0.2c-0.2,0.1-0.3,0.1-0.5,0.2c-0.2,0.1-0.4,0.2-0.6,0.2c-0.2,0.1-0.3,0.1-0.5,0.2c-0.2,0.1-0.4,0.2-0.6,0.3 c-0.2,0.1-0.3,0.2-0.5,0.3c-0.2,0.1-0.4,0.2-0.5,0.3C11.2,3,11,3.1,10.8,3.2c-0.2,0.1-0.3,0.2-0.5,0.3C10.2,3.6,10,3.7,9.9,3.8 C9.7,3.9,9.5,4,9.4,4.1C9.2,4.2,9.1,4.3,8.9,4.5C8.8,4.6,8.6,4.7,8.4,4.8C8.3,4.9,8.2,5.1,8,5.2C7.9,5.3,7.7,5.4,7.5,5.6 C7.4,5.7,7.3,5.8,7.1,6C7,6.1,6.8,6.2,6.7,6.4C6.6,6.5,6.4,6.6,6.3,6.8c0,0,0,0.1-0.1,0.1C8,7.8,9.8,8.5,11.7,9 C12.7,5.8,14.5,3,16.8,0.6z"></path> <path d="M6.2,37.9C6.3,37.9,6.3,38,6.2,37.9c0.2,0.2,0.3,0.3,0.4,0.5c0.1,0.1,0.3,0.3,0.5,0.4c0.1,0.1,0.3,0.2,0.4,0.4 c0.2,0.1,0.3,0.3,0.5,0.4c0.1,0.1,0.3,0.2,0.4,0.3c0.2,0.1,0.3,0.3,0.5,0.4c0.1,0.1,0.3,0.2,0.4,0.3c0.2,0.1,0.3,0.2,0.5,0.4 c0.1,0.1,0.3,0.2,0.5,0.3c0.2,0.1,0.3,0.2,0.5,0.3c0.2,0.1,0.3,0.2,0.5,0.3c0.2,0.1,0.4,0.2,0.5,0.3c0.2,0.1,0.3,0.2,0.5,0.2 c0.2,0.1,0.4,0.2,0.6,0.3c0.2,0.1,0.3,0.1,0.5,0.2c0.2,0.1,0.4,0.2,0.6,0.2c0.2,0.1,0.3,0.1,0.5,0.2c0.2,0.1,0.4,0.1,0.6,0.2 c0.2,0.1,0.3,0.1,0.5,0.2c0.2,0.1,0.4,0.1,0.6,0.2c0.2,0,0.3,0.1,0.5,0.1c0.1,0,0.1,0,0.2,0c-2.4-2.3-4.1-5.2-5.1-8.3 C9.8,36.3,8,37,6.2,37.9z"></path> <path d="M10,28.3H0.8c0.8,3.1,2.3,5.9,4.4,8.4c1.9-1,4-1.9,6.1-2.4C10.7,32.3,10.3,30.3,10,28.3z"></path> <path d="M44.2,17.5H0.6c-0.3,0-0.6,0.3-0.6,0.6v8.6c0,0.3,0.3,0.6,0.6,0.6h43.6c0.3,0,0.6-0.3,0.6-0.6v-8.6 C44.8,17.7,44.6,17.5,44.2,17.5z M16.6,25.5c0,0.2-0.2,0.2-0.3,0.2h-1.1c-0.2,0-0.3-0.1-0.3-0.2l-0.8-4.4H14l-0.7,4.4 c0,0.1-0.1,0.2-0.3,0.2h-1.1c-0.2,0-0.3-0.1-0.3-0.2c-0.2-0.7-0.4-1.6-0.5-2.7c-0.2-1.1-0.3-2.1-0.4-3c0-0.1,0-0.2,0.2-0.2h0.8 c0.2,0,0.2,0.1,0.2,0.2c0.1,1.6,0.4,3.2,0.6,4.8h0l0.8-4.5c0-0.1,0.1-0.2,0.3-0.2h1.1c0.2,0,0.3,0.1,0.3,0.2l0.8,4.5h0 c0.3-1.6,0.5-3.3,0.6-4.8c0-0.1,0.1-0.2,0.2-0.2h0.8c0.1,0,0.1,0,0.2,0c0,0,0,0.1,0,0.2C17.2,22.3,16.9,24.1,16.6,25.5z M24.6,25.5 c0,0.2-0.2,0.2-0.3,0.2h-1.1c-0.2,0-0.3-0.1-0.3-0.2l-0.8-4.4H22l-0.7,4.4c0,0.1-0.1,0.2-0.3,0.2h-1.1c-0.2,0-0.3-0.1-0.3-0.2 c-0.2-0.7-0.4-1.6-0.5-2.7c-0.2-1.1-0.3-2.1-0.4-3c0-0.1,0-0.2,0.2-0.2h0.8c0.2,0,0.2,0.1,0.2,0.2c0.1,1.6,0.4,3.2,0.6,4.8h0 l0.8-4.5c0-0.1,0.1-0.2,0.3-0.2h1.1c0.2,0,0.3,0.1,0.3,0.2l0.8,4.5h0c0.3-1.6,0.5-3.3,0.6-4.8c0-0.1,0.1-0.2,0.2-0.2h0.8 c0.1,0,0.1,0,0.2,0c0,0,0,0.1,0,0.2C25.2,22.3,24.9,24.1,24.6,25.5z M32.5,25.5c0,0.2-0.2,0.2-0.3,0.2h-1.1c-0.2,0-0.3-0.1-0.3-0.2 L30,21.1H30l-0.7,4.4c0,0.1-0.1,0.2-0.3,0.2h-1.1c-0.2,0-0.3-0.1-0.3-0.2c-0.2-0.7-0.4-1.6-0.5-2.7c-0.2-1.1-0.3-2.1-0.4-3 c0-0.1,0-0.2,0.2-0.2h0.8c0.2,0,0.2,0.1,0.2,0.2c0.1,1.6,0.4,3.2,0.6,4.8h0l0.8-4.5c0-0.1,0.1-0.2,0.3-0.2h1.1 c0.2,0,0.3,0.1,0.3,0.2l0.8,4.5h0c0.3-1.6,0.5-3.3,0.6-4.8c0-0.1,0.1-0.2,0.2-0.2h0.8c0.1,0,0.1,0,0.2,0c0,0,0,0.1,0,0.2 C33.2,22.3,32.9,24.1,32.5,25.5z M36.2,25.5c-0.1,0.1-0.3,0.2-0.5,0.2c-0.2,0-0.3-0.1-0.4-0.2c-0.1-0.1-0.2-0.3-0.2-0.5 c0-0.2,0.1-0.3,0.2-0.4c0.1-0.1,0.3-0.2,0.4-0.2c0.2,0,0.3,0.1,0.5,0.2c0.1,0.1,0.2,0.3,0.2,0.5C36.4,25.2,36.4,25.4,36.2,25.5z"></path> </g> </svg> 