<?xml version="1.0" encoding="UTF-8"?> <!-- Generator: Adobe Illustrator 24.2.3, SVG Export Plug-In . SVG Version: 6.00 Build 0) --> <svg xmlns:v="https://vecta.io/nano" xmlns="http://www.w3.org/2000/svg" xmlns:xlink="http://www.w3.org/1999/xlink" version="1.1" id="Layer_1" x="0px" y="0px" viewBox="0 0 47.3 44.8" style="enable-background:new 0 0 47.3 44.8;" xml:space="preserve"> <style type="text/css"> .st0{fill-rule:evenodd;clip-rule:evenodd;} .st1{fill:#CC092F;} .st2{fill-rule:evenodd;clip-rule:evenodd;fill:#CC092F;} </style> <g> <g> <path class="st1" d="M29.8,35.1c1.6,1.3,2.4,2.5,2.5,3.8c0.6-1.1,1.1-2.3,1.6-3.6c-1.6-0.4-3.2-0.6-4.8-0.8 C29.4,34.8,29.6,35,29.8,35.1L29.8,35.1z"></path> <path class="st1" d="M30.4,44.1c0.1,0,0.1,0,0.2,0c0.2,0,0.3-0.1,0.5-0.2c0.2-0.1,0.4-0.1,0.6-0.2c0.2-0.1,0.3-0.1,0.5-0.2 c0.2-0.1,0.4-0.1,0.6-0.2c0.2-0.1,0.3-0.1,0.5-0.2c0.2-0.1,0.4-0.2,0.6-0.2c0.2-0.1,0.3-0.1,0.5-0.2c0.2-0.1,0.4-0.2,0.6-0.3 c0.2-0.1,0.3-0.2,0.5-0.3c0.2-0.1,0.4-0.2,0.5-0.3c0.2-0.1,0.3-0.2,0.5-0.3c0.2-0.1,0.3-0.2,0.5-0.3c0.2-0.1,0.3-0.2,0.5-0.3 c0.2-0.1,0.3-0.2,0.5-0.4c0.1-0.1,0.3-0.2,0.4-0.3c0.2-0.1,0.3-0.3,0.5-0.4c0.1-0.1,0.3-0.2,0.4-0.3c0.2-0.1,0.3-0.3,0.5-0.4 c0.1-0.1,0.3-0.2,0.4-0.4c0.2-0.1,0.3-0.3,0.5-0.4c0.1-0.1,0.3-0.3,0.4-0.4c0,0,0-0.1,0.1-0.1c-1.7-0.9-3.6-1.6-5.5-2.1 C34.5,39,32.8,41.8,30.4,44.1z"></path> <path class="st1" d="M36,34.3c2.1,0.6,4.2,1.4,6.1,2.4c3.2-3.8,5-8.6,5.1-13.5h-9.6C37.6,26.9,37.1,30.7,36,34.3z"></path> <path class="st1" d="M34.5,10.9c-2.9,0.7-5.9,1-8.8,1.1v9.6H36C36,18,35.5,14.4,34.5,10.9z"></path> <path class="st1" d="M25.6,0v10.3c2.8,0,5.6-0.4,8.3-1C32.1,4.1,29.1,0.5,25.6,0z"></path> <path class="st1" d="M36,23.2H25.6v9.6c3,0,5.9,0.4,8.8,1.1C35.5,30.4,36,26.8,36,23.2z"></path> <path class="st1" d="M37.6,21.6h9.6c-0.2-4.9-2-9.7-5.1-13.5c-1.9,1-4,1.9-6.1,2.4C37.1,14.1,37.6,17.8,37.6,21.6z"></path> <path class="st1" d="M41,6.9C41,6.8,41,6.8,41,6.9c-0.2-0.2-0.3-0.3-0.5-0.5c-0.1-0.1-0.3-0.3-0.5-0.4c-0.1-0.1-0.3-0.2-0.4-0.4 c-0.2-0.1-0.3-0.3-0.5-0.4C39.1,5.1,39,5,38.8,4.8c-0.2-0.1-0.3-0.3-0.5-0.4c-0.1-0.1-0.3-0.2-0.4-0.3c-0.2-0.1-0.3-0.2-0.5-0.4 c-0.1-0.1-0.3-0.2-0.5-0.3c-0.2-0.1-0.3-0.2-0.5-0.3c-0.2-0.1-0.3-0.2-0.5-0.3c-0.2-0.1-0.4-0.2-0.5-0.3c-0.2-0.1-0.3-0.2-0.5-0.2 c-0.2-0.1-0.4-0.2-0.6-0.3C34.2,2,34,1.9,33.9,1.8c-0.2-0.1-0.4-0.2-0.6-0.2c-0.2-0.1-0.3-0.1-0.5-0.2c-0.2-0.1-0.4-0.1-0.6-0.2 C32,1.1,31.9,1.1,31.7,1c-0.2-0.1-0.4-0.1-0.6-0.2c-0.2,0-0.3-0.1-0.5-0.1c-0.1,0-0.1,0-0.2,0C32.8,3,34.5,5.8,35.5,9 C37.4,8.5,39.3,7.8,41,6.9z"></path> <path class="st1" d="M9.6,14.9c2.5,3.1,2.7,5,1.8,6.6H12c0-3.8,0.6-7.5,1.6-11.1c-2.1-0.6-4.2-1.4-6.1-2.4c-1.1,1.3-2,2.8-2.8,4.3 c0.3,0,0.5-0.1,0.8-0.1C6.9,12.4,8.3,13.3,9.6,14.9z"></path> <path class="st1" d="M24,32.8v-9.6H13.6c0,2.7,0.3,5.4,0.9,8.1c1,0.9,1.8,1.7,2.5,2.2C19.3,33.1,21.7,32.9,24,32.8z"></path> <path class="st1" d="M24,10.3V0c-3.4,0.5-6.4,4.1-8.3,9.4C18.4,10,21.2,10.3,24,10.3z"></path> <path class="st1" d="M13.6,21.6H24v-9.6c-3,0-5.9-0.4-8.8-1.1C14.2,14.4,13.7,18,13.6,21.6z"></path> <path class="st1" d="M19.3,0.6c-0.1,0-0.1,0-0.2,0c-0.2,0-0.3,0.1-0.5,0.1C18.3,0.9,18.1,1,17.9,1c-0.2,0.1-0.3,0.1-0.5,0.2 c-0.2,0.1-0.4,0.1-0.6,0.2c-0.2,0.1-0.3,0.1-0.5,0.2c-0.2,0.1-0.4,0.2-0.6,0.2c-0.2,0.1-0.3,0.1-0.5,0.2c-0.2,0.1-0.4,0.2-0.6,0.3 c-0.2,0.1-0.3,0.2-0.5,0.3c-0.2,0.1-0.4,0.2-0.5,0.3c-0.2,0.1-0.3,0.2-0.5,0.3c-0.2,0.1-0.3,0.2-0.5,0.3c-0.2,0.1-0.3,0.2-0.5,0.3 c-0.2,0.1-0.3,0.2-0.5,0.4c-0.1,0.1-0.3,0.2-0.4,0.3c-0.2,0.1-0.3,0.3-0.5,0.4c-0.1,0.1-0.3,0.2-0.4,0.3c-0.2,0.1-0.3,0.3-0.5,0.4 C9.8,5.7,9.7,5.8,9.5,6C9.4,6.1,9.2,6.2,9.1,6.4C9,6.5,8.8,6.6,8.7,6.8c0,0,0,0.1-0.1,0.1c1.7,0.9,3.6,1.6,5.5,2.1 C15.1,5.8,16.9,3,19.3,0.6z"></path> <path class="st1" d="M9.3,24c0,0-0.7,1,3.2,5.2c-0.3-2-0.5-4-0.5-6.1h-1.8c-0.2,0.2-0.3,0.3-0.5,0.5L9.3,24z"></path> </g> <path class="st1" d="M29.2,35.9c-4.5-3.6-5.7-1.8-7.8,0.2c-1.4,1.4-5-1.5-8.1-4.7c-3.1-3.1-6.1-6.7-4.7-8.1c2-2,3.8-3.3,0.2-7.8 c-3.6-4.5-6-1-8,0.9c-2.3,2.3-0.1,10.8,8.3,19.2C17.5,44,26,46.2,28.3,43.9C30.2,41.9,33.7,39.5,29.2,35.9z"></path> </g> </svg> 