<?xml version="1.0" encoding="UTF-8"?> <!-- Generator: Adobe Illustrator 24.2.3, SVG Export Plug-In . SVG Version: 6.00 Build 0) --> <svg xmlns:v="https://vecta.io/nano" xmlns="http://www.w3.org/2000/svg" xmlns:xlink="http://www.w3.org/1999/xlink" version="1.1" id="Layer_1" x="0px" y="0px" viewBox="0 0 22.4 44.8" style="enable-background:new 0 0 22.4 44.8;" xml:space="preserve"> <style type="text/css"> .st0{fill-rule:evenodd;clip-rule:evenodd;} .st1{fill:#CC092F;} .st2{fill-rule:evenodd;clip-rule:evenodd;fill:#CC092F;} </style> <path class="st2" d="M18.3,44.8c0,0,4.1,0,4.1-4.1V4.1C22.4,0,18.3,0,18.3,0H4.1C4.1,0,0,0,0,4.1v36.6c0,4.1,4.1,4.1,4.1,4.1H18.3z M11.2,43.1c-1.1,0-2-0.9-2-2c0-1.1,0.9-2,2-2c1.1,0,2,0.9,2,2C13.2,42.1,12.3,43.1,11.2,43.1L11.2,43.1z M8.1,2.5 C8.1,2.2,8.2,2,8.4,2h5.6c0.1,0,0.3,0.2,0.3,0.4v0.1c0,0.2-0.1,0.4-0.3,0.4H8.4c-0.1,0-0.3-0.2-0.3-0.4V2.5z M2,5.1h18.3v32.5H2 L2,5.1L2,5.1z"></path> </svg> 