<?xml version="1.0" encoding="UTF-8"?> <!-- Generator: Adobe Illustrator 24.2.3, SVG Export Plug-In . SVG Version: 6.00 Build 0) --> <svg xmlns:v="https://vecta.io/nano" xmlns="http://www.w3.org/2000/svg" xmlns:xlink="http://www.w3.org/1999/xlink" version="1.1" id="Layer_1" x="0px" y="0px" viewBox="0 0 25.5 44.8" style="enable-background:new 0 0 25.5 44.8;" xml:space="preserve"> <style type="text/css"> .st0{fill-rule:evenodd;clip-rule:evenodd;} .st1{fill:#CC092F;} .st2{fill-rule:evenodd;clip-rule:evenodd;fill:#CC092F;} </style> <path class="st1" d="M11.9,44.7c0-1.2,0.1-2.3,0-3.4c0-0.4-0.3-0.9-0.6-1.1c-1.4-0.7-2.9-1.3-4.5-1.9c-0.1,2.1-1.6,1.9-3.1,1.9 c-0.5,0-1,0-1.5,0c-2.4,0-2.3,0-2.2-2.3c0.1-3.6,0.2-7.2,0.2-10.8c0-8.1,0-16.2,0-24.4c0-2,0-2,2.1-2.2c1.1,0,2.4-0.1,3.5-0.4 C7-0.1,7.5,0.2,7.5,1.5c-0.1,3.1,0,6.3,0,9.4c0,0.5,0,1,0,1.7c1.2-0.5,2.3-0.9,3.3-1.4c0.3-0.1,0.5-0.6,0.5-1c0.1-1.5,0.1-3,0-4.5 c0-0.9,0.4-1.2,1.2-1.2c1.6,0,3.2,0.1,4.8,0c0.9,0,1.1,0.4,1.1,1.2c0,1.3-0.1,2.6,0,3.9c0,0.4,0.4,1.1,0.8,1.2 c3.8,1.1,5.9,3.9,6.1,7.6c0.3,5,0.2,10.1-0.2,15c-0.3,3.2-2.2,5.6-5.4,6.7c-1,0.3-0.9,1.1-0.9,1.8c0,2.9,0,2.9-3,2.9 C14.7,44.7,13.4,44.7,11.9,44.7z M7.5,25.5c0,1.6,0,3.2,0,4.8c0,3.9,0.3,4.3,4.3,4.7c0.6,0.1,1.1,0.1,1.7,0c2.7-0.2,4.2-1.5,4.6-4.2 c0.3-1.8,0.2-3.6,0.2-5.4s0-3.7-0.2-5.4c-0.4-2.6-1.9-3.8-4.6-3.7c-1.7,0.1-3.3,0.6-4.9,0.9c-0.8,0.2-1.1,0.7-1.1,1.5 C7.6,20.9,7.5,23.2,7.5,25.5z"></path> </svg> 