<?xml version="1.0" encoding="UTF-8"?> <!-- Generator: Adobe Illustrator 24.2.3, SVG Export Plug-In . SVG Version: 6.00 Build 0) --> <svg xmlns:v="https://vecta.io/nano" xmlns="http://www.w3.org/2000/svg" xmlns:xlink="http://www.w3.org/1999/xlink" version="1.1" id="Layer_1" x="0px" y="0px" viewBox="0 0 44.8 44.8" style="enable-background:new 0 0 44.8 44.8;" xml:space="preserve"> <style type="text/css"> .st0{fill-rule:evenodd;clip-rule:evenodd;} .st1{fill:#CC092F;} .st2{fill-rule:evenodd;clip-rule:evenodd;fill:#CC092F;} </style> <g> <path class="st1" d="M33.2,19.9c-2.2-0.2-4.1-1.8-4.6-3.9h-4.9v12.8h9C33.2,25.9,33.4,22.9,33.2,19.9z"></path> <path class="st1" d="M33.6,12.1c-1.4,0-2.6,1.2-2.6,2.6c0,1.4,1.2,2.6,2.6,2.6c1.4,0,2.6-1.2,2.6-2.6C36.2,13.2,35,12.1,33.6,12.1z "></path> <circle class="st1" cx="11" cy="30.2" r="3.9"></circle> <path class="st1" d="M21.1,0c-3,2.1-5.4,5.5-7.1,9.5c-0.5,1.2-0.9,2.5-1.3,3.8h8.4L21.1,0z"></path> <path class="st1" d="M11.5,23.6c2.9,0.2,5.3,2.4,5.9,5.1h3.6V16h-9C11.6,18.5,11.5,21,11.5,23.6z"></path> <path class="st1" d="M21.1,44.8V31.4h-3.6c-0.4,1.9-1.6,3.6-3.2,4.5C15.9,39.6,18.2,42.8,21.1,44.8L21.1,44.8z"></path> <path class="st1" d="M23.7,44.8c3.1-2.2,5.7-5.8,7.3-10.1c0.4-1,0.8-2.1,1.1-3.3h-8.4V44.8z"></path> <path class="st1" d="M33.5,35.6c-1.3,3.3-3.1,6.1-5.2,8.4c6.6-1.8,11.9-6.5,14.6-12.6h-8.1C34.4,32.8,34,34.3,33.5,35.6L33.5,35.6z "></path> <path class="st1" d="M11,36.7c-3.2,0-5.9-2.3-6.4-5.3H1.9c2.7,6.1,8,10.8,14.5,12.6c-1.9-2-3.5-4.4-4.7-7.3 C11.5,36.7,11.3,36.7,11,36.7L11,36.7z"></path> <path class="st1" d="M35.8,19.4c0.2,3.1,0.1,6.3-0.4,9.3h8.5c0.6-2,0.9-4.2,0.9-6.4S44.4,18,43.8,16h-5.2 C38.3,17.5,37.2,18.8,35.8,19.4z"></path> <path class="st1" d="M8.9,23.9c-0.1-2.7,0.1-5.4,0.5-8H0.9C0.3,18,0,20.2,0,22.4s0.3,4.4,0.9,6.4h3.7C5.1,26.5,6.8,24.7,8.9,23.9z"></path> <path class="st1" d="M33.6,9.4C33.6,9.4,33.6,9.4,33.6,9.4c2.5,0,4.5,1.7,5.1,3.9h4.2C40.2,7.2,34.8,2.6,28.3,0.8 c0.5,0.5,1,1.1,1.5,1.7C31.3,4.5,32.6,6.8,33.6,9.4L33.6,9.4z"></path> <path class="st1" d="M23.7,0v13.4h4.9c0.4-1.4,1.3-2.6,2.5-3.2C29.7,6.8,27.5,2.6,23.7,0z"></path> <path class="st1" d="M11.5,8.5c1.3-3,3-5.7,5-7.7C9.9,2.6,4.6,7.2,1.9,13.4H10C10.4,11.7,10.9,10.1,11.5,8.5L11.5,8.5z"></path> </g> </svg> 