<?xml version="1.0" encoding="UTF-8"?> <!-- Generator: Adobe Illustrator 24.2.3, SVG Export Plug-In . SVG Version: 6.00 Build 0) --> <svg xmlns:v="https://vecta.io/nano" xmlns="http://www.w3.org/2000/svg" xmlns:xlink="http://www.w3.org/1999/xlink" version="1.1" id="Layer_1" x="0px" y="0px" viewBox="0 0 49.2 44.8" style="enable-background:new 0 0 49.2 44.8;" xml:space="preserve"> <style type="text/css"> .st0{fill-rule:evenodd;clip-rule:evenodd;} .st1{fill:#CC092F;} .st2{fill-rule:evenodd;clip-rule:evenodd;fill:#CC092F;} </style> <g> <g> <g> <path d="M45.6,0h-42C1.6,0,0,1.6,0,3.6v23.6v2.9v4.3c0,2,1.6,3.6,3.6,3.6h13.9l-0.6,3.8h-3.8v2.9h3.3h16.1H36v-2.9h-3.8L31.7,38 h13.9c2,0,3.6-1.6,3.6-3.6v-4.3v-2.9V3.6C49.2,1.6,47.6,0,45.6,0z M26.6,34.1h-4v-2.9h4V34.1z M46.3,27.2H2.9V3.6 c0-0.4,0.3-0.7,0.7-0.7h42c0.4,0,0.7,0.3,0.7,0.7L46.3,27.2L46.3,27.2z"></path> </g> </g> <g> <g> <path d="M13.7,8.5L16.2,21h17.2L36,8.5H13.7z M17.3,11.4h3.1l0.1,1.9h-2.8L17.3,11.4z M18.6,18.1l-0.4-1.9h2.4l0.1,1.9H18.6z M25.9,18.1h-2.2l-0.1-1.9h2.5L25.9,18.1z M26.3,13.3h-2.9l-0.1-1.9h3.1L26.3,13.3z M31,18.1h-2.2l0.1-1.9h2.4L31,18.1z M32,13.3 h-2.8l0.1-1.9h3.1L32,13.3z"></path> </g> </g> </g> </svg> 