<?xml version="1.0" encoding="UTF-8"?> <!-- Generator: Adobe Illustrator 24.2.3, SVG Export Plug-In . SVG Version: 6.00 Build 0) --> <svg xmlns:v="https://vecta.io/nano" xmlns="http://www.w3.org/2000/svg" xmlns:xlink="http://www.w3.org/1999/xlink" version="1.1" id="Layer_1" x="0px" y="0px" viewBox="0 0 46.8 44.8" style="enable-background:new 0 0 46.8 44.8;" xml:space="preserve"> <style type="text/css"> .st0{fill-rule:evenodd;clip-rule:evenodd;} .st1{fill:#CC092F;} .st2{fill-rule:evenodd;clip-rule:evenodd;fill:#CC092F;} </style> <path class="st1" d="M9.1,15.7c-0.9-3.1,0.1-3.5,0.8-3.5C9.3,10.6,9.3,9,9.7,7.6c0.4-1.7,1.3-3.1,2.4-4.2c0.7-0.7,1.4-1.3,2.2-1.8 c0.7-0.5,1.4-0.8,2.2-1.1l0,0c0.6-0.2,1.3-0.3,2-0.4c2.1-0.2,3.8,0.4,4.9,1c1.7,1,2.4,2.2,2.4,2.2s4.4,0.3,2.5,9.5 c0.6,0.2,1,1,0.3,3.4c-0.8,3-1.6,3.1-2.1,2.8c-0.6,3.2-2.3,7.3-7.8,7.5c-5.6-0.4-7.4-4.7-7.9-7.9C10.3,18.6,9.7,18,9.1,15.7z M30.5,29.4h2.1c0-0.2,0-0.4,0.1-0.5c-4-1.3-7.1-3.5-7.1-3.5l-3,9.5l-0.6,1.8l0,0l-0.5,1.5L20,33.7c4-5.6-1.1-5.4-1.1-5.4 s-5.1-0.2-1.1,5.4l-1.6,4.5l-0.5-1.5l-3.6-11.3c0,0-3.9,2.7-8.6,3.9c-3.5,0.9-3.7,5-3.6,7l0,0c0,0,0,2.8,0.4,3.9 c0,0,6.9,4.5,18.5,4.5l0-0.3l0,0.3c3.5,0,6.6-0.4,9.2-1c-0.5-0.6-0.8-1.3-0.8-2.1v-9.1C27.4,30.9,28.8,29.4,30.5,29.4z M46.8,32.6 v9.1c0,0.9-0.7,1.7-1.7,1.7H30.5c-0.9,0-1.7-0.7-1.7-1.7v-9.1c0-0.9,0.7-1.7,1.7-1.7h3.7v-1.4c0-0.9,0.7-1.6,1.6-1.6h4 c0.9,0,1.6,0.7,1.6,1.6V31h3.7C46.1,31,46.8,31.7,46.8,32.6z M40,29.5c0-0.1-0.1-0.2-0.2-0.2h-4c-0.1,0-0.2,0.1-0.2,0.2V31H40 L40,29.5L40,29.5z"></path> </svg> 