<?xml version="1.0" encoding="UTF-8"?> <!-- Generator: Adobe Illustrator 24.2.3, SVG Export Plug-In . SVG Version: 6.00 Build 0) --> <svg xmlns:v="https://vecta.io/nano" xmlns="http://www.w3.org/2000/svg" xmlns:xlink="http://www.w3.org/1999/xlink" version="1.1" id="Layer_1" x="0px" y="0px" viewBox="0 0 66.4 44.8" style="enable-background:new 0 0 66.4 44.8;" xml:space="preserve"> <style type="text/css"> .st0{fill-rule:evenodd;clip-rule:evenodd;} .st1{fill:#CC092F;} .st2{fill-rule:evenodd;clip-rule:evenodd;fill:#CC092F;} </style> <g> <path class="st1" d="M12.3,21.6c4.3,0,7.8-3.5,7.8-7.8s-3.5-7.8-7.8-7.8c-4.3,0-7.8,3.5-7.8,7.8S8.1,21.6,12.3,21.6z"></path> <path class="st1" d="M19.5,22.5c-1.9,1.6-4.4,2.6-7.1,2.6s-5.2-1-7.1-2.6C2.1,23.8,0,26.9,0,30.4v14.3h19.4h5.3V30.4 C24.7,26.9,22.5,23.8,19.5,22.5z"></path> <path class="st1" d="M54,21.6c4.3,0,7.8-3.5,7.8-7.8S58.3,6.1,54,6.1c-4.3,0-7.8,3.5-7.8,7.8S49.7,21.6,54,21.6z"></path> <path class="st1" d="M61.1,22.5c-1.9,1.6-4.4,2.6-7.1,2.6s-5.2-1-7.1-2.6c-3.1,1.3-5.2,4.4-5.2,7.9v14.3h5.3h19.4V30.4 C66.4,26.9,64.2,23.8,61.1,22.5z"></path> <path class="st1" d="M33.2,17.4c4.8,0,8.7-3.9,8.7-8.7S38,0,33.2,0s-8.7,3.9-8.7,8.7S28.4,17.4,33.2,17.4z"></path> <path class="st1" d="M44.5,19.9c-0.9-0.9-2-1.6-3.2-2.1c-2.1,1.9-5,3.1-8.1,3.1s-5.9-1.2-8.1-3.1c-1.2,0.4-2.3,1.2-3.2,2.1 c3.7,2.1,6.2,6,6.2,10.5v14.3h10.1V30.4C38.2,25.9,40.8,21.9,44.5,19.9z"></path> </g> </svg> 