<?xml version="1.0" encoding="UTF-8"?> <!-- Generator: Adobe Illustrator 24.2.3, SVG Export Plug-In . SVG Version: 6.00 Build 0) --> <svg xmlns:v="https://vecta.io/nano" xmlns="http://www.w3.org/2000/svg" xmlns:xlink="http://www.w3.org/1999/xlink" version="1.1" id="Layer_1" x="0px" y="0px" viewBox="0 0 44.8 44.8" style="enable-background:new 0 0 44.8 44.8;" xml:space="preserve"> <style type="text/css"> .st0{fill-rule:evenodd;clip-rule:evenodd;} .st1{fill:#CC092F;} .st2{fill-rule:evenodd;clip-rule:evenodd;fill:#CC092F;} </style> <g> <g> <path class="st1" d="M40,29c-2.2,0-4.1,1.5-4.6,3.5h-4.6v-5.1h4.7c5.2,0,9.3-4.2,9.3-9.3c0-4.1-2.7-7.8-6.6-8.9 C37,4.4,32.7,1,27.8,1c-1.9,0-3.7,0.5-5.3,1.4C20.8,0.9,18.5,0,16.2,0c-5,0-9.2,4-9.3,9c-4,1.1-6.8,4.8-6.8,9 c0,5.2,4.2,9.3,9.3,9.3h4.7v5.1H9.4C8.9,30.5,7,29,4.8,29C2.2,29,0,31.2,0,33.8s2.2,4.8,4.8,4.8c2.2,0,4.1-1.5,4.6-3.5h6 c0.7,0,1.3-0.6,1.3-1.3v-6.4h4.4v7.9c-2,0.6-3.5,2.4-3.5,4.6c0,2.7,2.2,4.8,4.8,4.8s4.8-2.2,4.8-4.8c0-2.2-1.5-4.1-3.5-4.6v-7.9 h4.4v6.4c0,0.7,0.6,1.3,1.3,1.3h6c0.6,2,2.4,3.5,4.6,3.5c2.7,0,4.8-2.2,4.8-4.8S42.6,29,40,29z M4.8,36c-1.2,0-2.2-1-2.2-2.2 s1-2.2,2.2-2.2s2.2,1,2.2,2.2S6,36,4.8,36z M24.6,39.9c0,1.2-1,2.2-2.2,2.2s-2.2-1-2.2-2.2s1-2.2,2.2-2.2S24.6,38.7,24.6,39.9z M40,36c-1.2,0-2.2-1-2.2-2.2s1-2.2,2.2-2.2s2.2,1,2.2,2.2S41.2,36,40,36z"></path> </g> </g> </svg> 