<?xml version="1.0" encoding="UTF-8"?> <!-- Generator: Adobe Illustrator 24.2.3, SVG Export Plug-In . SVG Version: 6.00 Build 0) --> <svg xmlns:v="https://vecta.io/nano" xmlns="http://www.w3.org/2000/svg" xmlns:xlink="http://www.w3.org/1999/xlink" version="1.1" id="Layer_1" x="0px" y="0px" viewBox="0 0 44.8 44.8" style="enable-background:new 0 0 44.8 44.8;" xml:space="preserve"> <style type="text/css"> .st0{fill-rule:evenodd;clip-rule:evenodd;} .st1{fill:#CC092F;} .st2{fill-rule:evenodd;clip-rule:evenodd;fill:#CC092F;} </style> <path class="st1" d="M22.4,0C10,0,0,10,0,22.4s10,22.4,22.4,22.4s22.4-10,22.4-22.4S34.7,0,22.4,0z M31.1,23.2l-12.9,7.4 c-0.1,0.1-0.3,0.1-0.5,0.1s-0.3,0-0.5-0.1c-0.3-0.2-0.5-0.5-0.5-0.8V15c0-0.3,0.2-0.7,0.5-0.8c0.3-0.2,0.7-0.2,1,0l12.9,7.4 c0.3,0.2,0.5,0.5,0.5,0.8C31.6,22.7,31.4,23.1,31.1,23.2z"></path> </svg> 