<?xml version="1.0" encoding="UTF-8"?> <!-- Generator: Adobe Illustrator 24.2.3, SVG Export Plug-In . SVG Version: 6.00 Build 0) --> <svg xmlns:v="https://vecta.io/nano" xmlns="http://www.w3.org/2000/svg" xmlns:xlink="http://www.w3.org/1999/xlink" version="1.1" id="Layer_1" x="0px" y="0px" viewBox="0 0 56.4 44.8" style="enable-background:new 0 0 56.4 44.8;" xml:space="preserve"> <style type="text/css"> .st0{fill-rule:evenodd;clip-rule:evenodd;} .st1{fill:#CC092F;} .st2{fill-rule:evenodd;clip-rule:evenodd;fill:#CC092F;} </style> <path class="st1" d="M2.7,19.2h11.8c0.5,0,0.7,0.2,0.6,0.7l-0.6,2.8c0,0.4-0.4,0.7-0.8,0.6H6l-0.4,5.5c1.2-0.2,2.5-0.3,3.7-0.3 c2.3,0,4,0.6,5.2,1.7c1.4,1.3,2.1,3.3,2.1,5.9v0.4c0,2.6-0.9,4.7-2.5,6.1c-1.7,1.4-4,2.2-6.8,2.2c-2.2,0-4.1-0.2-5.6-0.7 c-0.4-0.1-0.7-0.4-0.8-0.9L0,40.1c0-0.2,0-0.4,0.2-0.5s0.4,0,0.7,0.1c1.7,0.6,3.6,0.9,5.6,0.9c3.4,0,5-1.3,5-4v-0.2 c0-1.4-0.3-2.4-1-3c-0.6-0.6-1.7-0.9-3.4-0.9S3.8,32.7,2,33.1c-0.3,0.1-0.5,0-0.7,0C1.2,33,1,32.8,1.1,32.6l0.7-12.4 C1.8,19.6,2.1,19.2,2.7,19.2L2.7,19.2z M25.1,28.1v7.6c0,1.8,0.3,3,1,3.8c0.6,0.7,1.8,1.1,3.5,1.1c1.3,0,2.5-0.1,3.5-0.4v-5.8h-2.7 c-0.5,0-0.7-0.2-0.8-0.6l-0.2-2.7c0-0.5,0.2-0.7,0.6-0.7h7.2c0.4,0,0.6,0.2,0.6,0.6v10.9c0,0.8-0.3,1.3-0.9,1.6 c-1.9,0.8-4.4,1.3-7.5,1.3c-3.3,0-5.7-0.7-7.2-2c-1.5-1.4-2.3-3.5-2.3-6.4v-8.6c0-3.1,0.8-5.3,2.5-6.7c1.7-1.4,4.2-2.1,7.5-2.1 c2.3,0,4.3,0.2,6.1,0.7c0.4,0.1,0.6,0.4,0.6,0.9v2.8c0,0.4-0.2,0.6-0.8,0.4c-1.5-0.4-3.3-0.6-5.5-0.6c-1.7,0-3.1,0.4-4,1.1 C25.6,24.9,25.1,26.2,25.1,28.1L25.1,28.1z M35.5,11.7v2.6c1.8,0,3.5,0.7,4.7,1.9c1.2,1.2,1.9,2.9,1.9,4.7h0.4l2.2,0.1v-0.1 C44.7,15.8,40.6,11.7,35.5,11.7z M35.5,6.1L35.5,6.1h-0.2l0.1,2.6h0.1c3.4,0,6.4,1.3,8.6,3.6c2.2,2.2,3.6,5.2,3.6,8.6l0,0l0.4,0 l2.2,0.1v-0.1C50.3,12.7,43.7,6.1,35.5,6.1C35.5,6.1,35.5,6.1,35.5,6.1L35.5,6.1z M35.5,0L35.5,0l-0.2,0l0.1,2.6h0.1 c4.8,0,9.5,1.9,12.9,5.4c3.4,3.4,5.4,8.1,5.4,12.9l0,0l0.4,0l2.2,0.1v-0.1C56.4,9.4,47,0,35.5,0z"></path> </svg> 