<?xml version="1.0" encoding="UTF-8"?> <!-- Generator: Adobe Illustrator 24.2.3, SVG Export Plug-In . SVG Version: 6.00 Build 0) --> <svg xmlns:v="https://vecta.io/nano" xmlns="http://www.w3.org/2000/svg" xmlns:xlink="http://www.w3.org/1999/xlink" version="1.1" id="Layer_1" x="0px" y="0px" viewBox="0 0 69.1 44.8" style="enable-background:new 0 0 69.1 44.8;" xml:space="preserve"> <style type="text/css"> .st0{fill-rule:evenodd;clip-rule:evenodd;} .st1{fill:#CC092F;} .st2{fill-rule:evenodd;clip-rule:evenodd;fill:#CC092F;} </style> <path d="M55.4,1.3c0-0.7-0.6-1.3-1.3-1.3l0,0H4.7C4,0,3.4,0.6,3.4,1.3v21.4H1.4c-0.8,0-1.4,0.6-1.4,1.4v19.1c0,0.2,0,0.4,0.1,0.5 c0.2,0.4,0.4,0.7,0.8,0.8c0.2,0.1,0.3,0.1,0.5,0.1h9.6c0.8,0,1.4-0.6,1.4-1.4v-6.5h10.2v4.8H20c-1.5,0-2.7,0.7-2.7,1.6v1.6h24.2 v-1.6c0-0.9-1.2-1.6-2.7-1.6H36v-4.8h8.2v5.7c0,1.3,1,2.3,2.3,2.3h20.3c1.3,0,2.3-1,2.3-2.3V12.7c0-1.3-1-2.3-2.3-2.3H55.3L55.4,1.3 L55.4,1.3z M56.7,11.3c0.5,0,0.8,0.4,0.9,0.8c0,0.5-0.4,0.9-0.9,0.9c-0.5,0-0.8-0.4-0.8-0.8C55.8,11.6,56.2,11.3,56.7,11.3 L56.7,11.3z M7.1,23.8h1.7C8.9,23.8,9,23.9,9,24l0,0c0,0.1-0.1,0.2-0.2,0.2h-5c-0.1,0-0.2-0.1-0.2-0.2l0,0c0-0.1,0.1-0.2,0.2-0.2 H7.1L7.1,23.8z M6.3,43.9c-0.4,0-0.7-0.3-0.7-0.7c0-0.4,0.3-0.7,0.7-0.7S7,42.7,7,43.1C7,43.5,6.7,43.9,6.3,43.9z M11.4,41.5H1.2 V25.1h10.2V41.5L11.4,41.5z M12.5,33.6v-9.4c0-0.3-0.1-0.5-0.2-0.8c-0.1-0.2-0.3-0.3-0.5-0.5c-0.2-0.1-0.5-0.2-0.8-0.2h-4v-19h44.6 v6.7h-5.2c-1.3,0-2.3,1-2.3,2.3v20.9L12.5,33.6L12.5,33.6z M56.7,43.3c-0.8,0-1.4-0.6-1.4-1.4c0-0.8,0.6-1.4,1.4-1.4 c0.8,0,1.4,0.6,1.4,1.4l0,0C58.1,42.7,57.5,43.3,56.7,43.3z M66.5,39.5H46.9V13.8h19.6L66.5,39.5L66.5,39.5z"></path> </svg> 