<?xml version="1.0" encoding="UTF-8"?> <!-- Generator: Adobe Illustrator 24.2.3, SVG Export Plug-In . SVG Version: 6.00 Build 0) --> <svg xmlns:v="https://vecta.io/nano" xmlns="http://www.w3.org/2000/svg" xmlns:xlink="http://www.w3.org/1999/xlink" version="1.1" id="Layer_1" x="0px" y="0px" viewBox="0 0 44.8 44.8" style="enable-background:new 0 0 44.8 44.8;" xml:space="preserve"> <style type="text/css"> .st0{fill-rule:evenodd;clip-rule:evenodd;} .st1{fill:#CC092F;} .st2{fill-rule:evenodd;clip-rule:evenodd;fill:#CC092F;} </style> <g> <path id="XMLID_165_" d="M37.5,40.3h-9.3c0.1,0.4,0.1,0.8,0.1,1.3c0,0.5-0.1,1-0.2,1.5h10.7c0.8,0,1.4-0.6,1.4-1.4v-7.9h-2.8V40.3z "></path> <path id="XMLID_164_" d="M16.6,40.3H7.3v-6.6H4.6v7.9c0,0.8,0.6,1.4,1.4,1.4h10.7c-0.1-0.5-0.2-1-0.2-1.5 C16.5,41.1,16.5,40.7,16.6,40.3L16.6,40.3z"></path> <path id="XMLID_163_" d="M23.8,33.7H21v2.1c0.4-0.1,0.9-0.2,1.4-0.2s0.9,0.1,1.4,0.2L23.8,33.7z"></path> <ellipse id="XMLID_162_" cx="22.4" cy="41.6" rx="3.2" ry="3.2"></ellipse> <path id="XMLID_161_" d="M12.4,29.5v-28c0-0.8-0.7-1.5-1.5-1.5H1.5C0.7,0,0,0.7,0,1.5v28C0,30.3,0.7,31,1.5,31h9.5 C11.8,31,12.4,30.3,12.4,29.5z M6.2,26.3c-0.7,0-1.3-0.6-1.3-1.3c0-0.7,0.6-1.3,1.3-1.3c0.7,0,1.3,0.6,1.3,1.3 C7.5,25.7,6.9,26.3,6.2,26.3z M8.9,10.6H3.5c-0.8,0-1.4-0.6-1.4-1.4s0.6-1.4,1.4-1.4h5.3c0.8,0,1.4,0.6,1.4,1.4 C10.3,10,9.6,10.6,8.9,10.6z M8.9,5.1H3.5c-0.8,0-1.4-0.6-1.4-1.4s0.6-1.4,1.4-1.4h5.3c0.8,0,1.4,0.6,1.4,1.4 C10.3,4.5,9.6,5.1,8.9,5.1z"></path> <path id="XMLID_160_" d="M28.6,29.5v-28c0-0.8-0.7-1.5-1.5-1.5h-9.5c-0.8,0-1.5,0.7-1.5,1.5v28c0,0.8,0.7,1.5,1.5,1.5h9.5 C27.9,31,28.6,30.3,28.6,29.5z M22.4,26.3c-0.7,0-1.3-0.6-1.3-1.3c0-0.7,0.6-1.3,1.3-1.3c0.7,0,1.3,0.6,1.3,1.3 C23.7,25.7,23.1,26.3,22.4,26.3z M25.1,10.6h-5.3c-0.8,0-1.4-0.6-1.4-1.4s0.6-1.4,1.4-1.4h5.3c0.8,0,1.4,0.6,1.4,1.4 S25.8,10.6,25.1,10.6L25.1,10.6z M25.1,5.1h-5.3c-0.8,0-1.4-0.6-1.4-1.4s0.6-1.4,1.4-1.4h5.3c0.8,0,1.4,0.6,1.4,1.4 S25.8,5.1,25.1,5.1L25.1,5.1z"></path> <path id="XMLID_156_" d="M43.3,0h-9.5c-0.8,0-1.5,0.7-1.5,1.5v28c0,0.8,0.7,1.5,1.5,1.5h9.5c0.8,0,1.5-0.7,1.5-1.5v-28 C44.8,0.7,44.1,0,43.3,0z M38.6,26.3c-0.7,0-1.3-0.6-1.3-1.3c0-0.7,0.6-1.3,1.3-1.3s1.3,0.6,1.3,1.3C39.9,25.7,39.3,26.3,38.6,26.3 z M41.2,10.6h-5.3c-0.8,0-1.4-0.6-1.4-1.4s0.6-1.4,1.4-1.4h5.3c0.8,0,1.4,0.6,1.4,1.4S42,10.6,41.2,10.6z M41.2,5.1h-5.3 c-0.8,0-1.4-0.6-1.4-1.4s0.6-1.4,1.4-1.4h5.3c0.8,0,1.4,0.6,1.4,1.4S42,5.1,41.2,5.1z"></path> </g> </svg> 