<?xml version="1.0" encoding="UTF-8"?> <!-- Generator: Adobe Illustrator 24.2.3, SVG Export Plug-In . SVG Version: 6.00 Build 0) --> <svg xmlns:v="https://vecta.io/nano" xmlns="http://www.w3.org/2000/svg" xmlns:xlink="http://www.w3.org/1999/xlink" version="1.1" id="Layer_1" x="0px" y="0px" viewBox="0 0 41.4 44.8" style="enable-background:new 0 0 41.4 44.8;" xml:space="preserve"> <style type="text/css"> .st0{fill-rule:evenodd;clip-rule:evenodd;} .st1{fill:#CC092F;} .st2{fill-rule:evenodd;clip-rule:evenodd;fill:#CC092F;} </style> <g> <path d="M22.4,44.1c0,0.4,0.3,0.7,0.7,0.7h6.5c0.4,0,0.7-0.3,0.7-0.7v-3.5h-7.8V44.1z"></path> <path d="M41.1,20.3c-0.2-0.4-0.6-0.6-1.1-0.7c-0.6-0.1-1.2,0.1-1.6,0.6l-2.9,4.1c0.1,0.1,0.1,0.2,0.2,0.3c0.8,1.1,0.7,2.6-0.2,3.6 l-0.2,0.2c-1.2,1.3-2.4,2.6-3.8,3.7L30.5,33c-0.3,0.3-0.8,0.2-1.1-0.1c-0.3-0.3-0.2-0.8,0.1-1.1l1.1-0.9c1.3-1.1,2.5-2.3,3.6-3.5 l0.2-0.2c0.4-0.5,0.4-1.1,0.1-1.6c-0.2-0.3-0.5-0.5-0.9-0.6c-0.4,0-0.7,0-1,0.2l-6.2,4.3c-0.7,0.5-1.2,1.2-1.5,2L22.6,39h8.2 l5.5-3.3c1-0.6,1.6-1.5,1.9-2.6l3.1-11.5C41.4,21.1,41.4,20.6,41.1,20.3z"></path> <path d="M16.5,31.5c-0.2-0.8-0.8-1.5-1.5-2l-6.3-4.4c-0.3-0.2-0.7-0.3-1-0.2c-0.4,0-0.7,0.3-0.9,0.6C6.6,26,6.6,26.6,7,27.1 l0.2,0.2c1.1,1.3,2.3,2.4,3.6,3.5l1.1,0.9c0.3,0.3,0.4,0.8,0.1,1.1c-0.3,0.3-0.8,0.4-1.1,0.1l-1.1-0.9C8.4,31,7.1,29.7,6,28.4 l-0.2-0.2c-0.9-1-1-2.5-0.2-3.6c0-0.1,0.1-0.2,0.2-0.3l-2.9-4.1c-0.3-0.4-0.8-0.7-1.3-0.7c-0.1,0-0.2,0-0.2,0 c-0.4,0.1-0.8,0.3-1.1,0.7C0,20.6-0.1,21,0.1,21.5L3.1,33c0.3,1.1,1,2,1.9,2.6l5.5,3.3h8.2L16.5,31.5z"></path> <path d="M11.2,44.1c0,0.4,0.3,0.7,0.7,0.7h6.5c0.4,0,0.7-0.3,0.7-0.7v-3.5h-7.8V44.1z"></path> <path d="M9.5,13.7v7.2c0,1.3,1,2.3,2.3,2.3h17.8c1.3,0,2.3-1,2.3-2.3v-7.2c-2.5,0.4-5.2,0.6-7.6,0.8v0.1c0,1.4-1.2,2.6-2.6,2.6h-2 c-1.4,0-2.6-1.2-2.6-2.6v-0.1C14.7,14.3,12,14.1,9.5,13.7z"></path> <path d="M8.4,11.6c2.3,0.4,5.2,0.8,8.8,1c0-1.4,1.1-2.5,2.6-2.5h2c1.4,0,2.5,1.1,2.6,2.5c3.6-0.1,6.5-0.5,8.8-1 c0.3,0,0.5-0.3,0.5-0.7V7.3c0-1.3-1-2.3-2.3-2.3h-5.2V3.3c0-1.8-1.5-3.3-3.3-3.3h-4.2c-1.8,0-3.3,1.5-3.3,3.3V5h-5.2 C8.8,5,7.8,6,7.8,7.3v3.6C7.8,11.3,8,11.5,8.4,11.6z M17.9,3.3c0-0.4,0.3-0.7,0.7-0.7h4.2c0.4,0,0.7,0.3,0.7,0.7V5h-5.7V3.3z"></path> <path d="M21.7,15.3c0.4,0,0.8-0.3,0.8-0.8v-1.9c0-0.4-0.3-0.8-0.8-0.8h-1.9c-0.4,0-0.8,0.3-0.8,0.8v1.9c0,0.4,0.3,0.8,0.8,0.8H21.7 z"></path> </g> </svg> 