<?xml version="1.0" encoding="UTF-8"?> <!-- Generator: Adobe Illustrator 24.2.3, SVG Export Plug-In . SVG Version: 6.00 Build 0) --> <svg xmlns:v="https://vecta.io/nano" xmlns="http://www.w3.org/2000/svg" xmlns:xlink="http://www.w3.org/1999/xlink" version="1.1" id="Layer_1" x="0px" y="0px" viewBox="0 0 56.3 44.8" style="enable-background:new 0 0 56.3 44.8;" xml:space="preserve"> <style type="text/css"> .st0{fill-rule:evenodd;clip-rule:evenodd;} .st1{fill:#CC092F;} .st2{fill-rule:evenodd;clip-rule:evenodd;fill:#CC092F;} </style> <g> <path class="st1" d="M50.5,0H33.9v37.1h16.6V0z M37.7,32c-0.7,0-1.3-0.6-1.3-1.3c0-0.7,0.6-1.3,1.3-1.3S39,30,39,30.7 C39,31.4,38.4,32,37.7,32z M42.2,32c-0.7,0-1.3-0.6-1.3-1.3c0-0.7,0.6-1.3,1.3-1.3s1.3,0.6,1.3,1.3C43.5,31.4,42.9,32,42.2,32z M46.7,32c-0.7,0-1.3-0.6-1.3-1.3c0-0.7,0.6-1.3,1.3-1.3S48,30,48,30.7C48,31.4,47.4,32,46.7,32z M48,25.6H36.4V23H48V25.6z M48,19.2H36.4v-2.6H48V19.2z M48,12.8H36.4v-2.6H48V12.8z M48,6.4H36.4V3.8H48V6.4z"></path> <path class="st1" d="M5.8,37.1h16.6V0H5.8V37.1z M14.1,32c-0.7,0-1.3-0.6-1.3-1.3c0-0.7,0.6-1.3,1.3-1.3c0.7,0,1.3,0.6,1.3,1.3 C15.3,31.4,14.8,32,14.1,32z M18.5,32c-0.7,0-1.3-0.6-1.3-1.3c0-0.7,0.6-1.3,1.3-1.3s1.3,0.6,1.3,1.3C19.8,31.4,19.2,32,18.5,32z M8.3,3.8h11.5v2.6H8.3V3.8z M8.3,10.2h11.5v2.6H8.3V10.2z M8.3,16.6h11.5v2.6H8.3V16.6z M8.3,23h11.5v2.6H8.3V23z M9.6,29.4 c0.7,0,1.3,0.6,1.3,1.3c0,0.7-0.6,1.3-1.3,1.3s-1.3-0.6-1.3-1.3C8.3,30,8.9,29.4,9.6,29.4z"></path> <polygon class="st1" points="48,39.6 36.4,39.6 36.4,42.2 19.8,42.2 19.8,39.6 8.3,39.6 8.3,42.2 0,42.2 0,44.8 56.3,44.8 56.3,42.2 48,42.2 "></polygon> </g> </svg> 