<?xml version="1.0" encoding="UTF-8"?> <svg xmlns="http://www.w3.org/2000/svg" viewBox="0 0 52.46 23.28"><defs><style>.cls-1{fill-rule:evenodd;}</style></defs><g id="Layer_2" data-name="Layer 2"><g id="Layer_1-2" data-name="Layer 1"><path class="cls-1" d="M49.05,3.41a11.65,11.65,0,0,0-16.47,0L18,18A9,9,0,1,1,5.31,5.3,9,9,0,0,1,18,5.3l1.76,1.76h0a1.33,1.33,0,0,0,1.88-1.88h0L19.89,3.41a11.66,11.66,0,0,0-16.48,0,11.64,11.64,0,0,0,8.24,19.87,11.58,11.58,0,0,0,8.24-3.41L34.47,5.3a9,9,0,1,1,0,12.68l-1.74-1.74h0s0,0,0,0h0a1.33,1.33,0,0,0-1.87,0,1.35,1.35,0,0,0,0,1.89h0l1.76,1.76A11.64,11.64,0,1,0,49.05,3.41Z"></path></g></g></svg> 